<?xml version="1.0" encoding="UTF-8"?>

<svg xmlns="http://www.w3.org/2000/svg" viewBox="0 0 120 200" width="120" height="200">
  <g fill="none" stroke="#3F4B35" stroke-width="1.5" stroke-linecap="round" stroke-linejoin="round">
    
    <rect x="48" y="14" width="24" height="14" rx="2"></rect>
    <line x1="44" y1="28" x2="76" y2="28"></line>
    
    <path d="M52 28 L 52 50 L 40 60 L 40 174 a 10 10 0 0 0 10 10 L 70 184 a 10 10 0 0 0 10 -10 L 80 60 L 68 50 L 68 28"></path>
    
    <path d="M40 88 L 80 88" opacity="0.4"></path>
  </g>
  
  <rect x="44" y="100" width="32" height="50" fill="#FAF6EF" stroke="#3F4B35" stroke-width="1.2"></rect>
  <line x1="50" y1="118" x2="70" y2="118" stroke="#3F4B35" stroke-width="0.8"></line>
  <line x1="50" y1="124" x2="70" y2="124" stroke="#3F4B35" stroke-width="0.8" opacity="0.6"></line>
  <line x1="50" y1="130" x2="64" y2="130" stroke="#3F4B35" stroke-width="0.8" opacity="0.4"></line>
</svg>