<svg xmlns="http://www.w3.org/2000/svg" viewBox="0 0 80 200" fill="none">
  
  <defs>
    <linearGradient id="lvA" x1="0" x2="0" y1="0" y2="1">
      <stop offset="0" stop-color="#B57BD8"></stop>
      <stop offset="1" stop-color="#832FB1"></stop>
    </linearGradient>
  </defs>
  
  <path d="M40 196 C 40 160, 40 120, 40 70" stroke="#647654" stroke-width="1.6" stroke-linecap="round"></path>
  
  <path d="M40 150 C 32 142, 24 138, 18 142 C 22 150, 30 154, 40 152" fill="#9DAB85" stroke="#647654" stroke-width="1"></path>
  <path d="M40 138 C 48 130, 56 126, 62 130 C 58 138, 50 142, 40 140" fill="#9DAB85" stroke="#647654" stroke-width="1"></path>
  
  <g stroke="#531B79" stroke-width="0.8">
    
    <ellipse cx="34" cy="70" rx="4" ry="6" fill="url(#lvA)"></ellipse>
    <ellipse cx="46" cy="68" rx="4" ry="6" fill="url(#lvA)"></ellipse>
    <ellipse cx="34" cy="58" rx="4.5" ry="6.5" fill="url(#lvA)"></ellipse>
    <ellipse cx="46" cy="56" rx="4.5" ry="6.5" fill="url(#lvA)"></ellipse>
    <ellipse cx="33" cy="46" rx="5" ry="7" fill="url(#lvA)"></ellipse>
    <ellipse cx="47" cy="44" rx="5" ry="7" fill="url(#lvA)"></ellipse>
    <ellipse cx="34" cy="34" rx="5" ry="7" fill="url(#lvA)"></ellipse>
    <ellipse cx="46" cy="32" rx="5" ry="7" fill="url(#lvA)"></ellipse>
    
    <ellipse cx="40" cy="22" rx="5" ry="7.5" fill="url(#lvA)"></ellipse>
    <ellipse cx="40" cy="11" rx="4" ry="6" fill="url(#lvA)"></ellipse>
  </g>
  
  <g stroke="#D4ACEA" stroke-width="0.7" fill="none" stroke-linecap="round" opacity=".9">
    <path d="M32 67 q 0 3 1 5"></path>
    <path d="M32 55 q 0 3 1 5"></path>
    <path d="M44 41 q 0 3 1 5"></path>
    <path d="M38 19 q 0 3 1 5"></path>
  </g>
</svg>