<svg xmlns="http://www.w3.org/2000/svg" viewBox="0 0 100 200" fill="none">
  
  <defs>
    <radialGradient id="lvB" cx="0.5" cy="0.4" r="0.6">
      <stop offset="0" stop-color="#D4ACEA"></stop>
      <stop offset="0.7" stop-color="#9C57C7"></stop>
      <stop offset="1" stop-color="#531B79"></stop>
    </radialGradient>
  </defs>
  
  <g stroke="#4F5E42" stroke-width="1.5" stroke-linecap="round" fill="none">
    <path d="M30 196 C 30 160, 28 110, 24 60"></path>
    <path d="M50 198 C 50 160, 50 110, 50 50"></path>
    <path d="M70 196 C 70 160, 72 110, 76 60"></path>
  </g>
  
  <g fill="#7E8E66" stroke="#4F5E42" stroke-width="0.7">
    <path d="M50 170 q -16 -4 -22 -14 q 12 0 22 8 z"></path>
    <path d="M50 170 q 16 -4 22 -14 q -12 0 -22 8 z"></path>
    <path d="M30 140 q -10 -2 -14 -10 q 8 0 14 6 z"></path>
    <path d="M70 140 q 10 -2 14 -10 q -8 0 -14 6 z"></path>
  </g>
  
  <g>
    
    <g transform="translate(24 60)">
      <ellipse cx="0" cy="0" rx="6" ry="14" fill="url(#lvB)"></ellipse>
      <g fill="#B57BD8" opacity=".75">
        <ellipse cx="-2" cy="-9" rx="1.5" ry="2.2"></ellipse>
        <ellipse cx="2" cy="-5" rx="1.5" ry="2.2"></ellipse>
        <ellipse cx="-2" cy="-1" rx="1.5" ry="2.2"></ellipse>
        <ellipse cx="2" cy="3" rx="1.5" ry="2.2"></ellipse>
        <ellipse cx="-2" cy="7" rx="1.5" ry="2.2"></ellipse>
      </g>
    </g>
    
    <g transform="translate(50 50)">
      <ellipse cx="0" cy="0" rx="7" ry="18" fill="url(#lvB)"></ellipse>
      <g fill="#D4ACEA" opacity=".75">
        <ellipse cx="-2" cy="-13" rx="1.8" ry="2.5"></ellipse>
        <ellipse cx="2" cy="-9" rx="1.8" ry="2.5"></ellipse>
        <ellipse cx="-2" cy="-5" rx="1.8" ry="2.5"></ellipse>
        <ellipse cx="2" cy="-1" rx="1.8" ry="2.5"></ellipse>
        <ellipse cx="-2" cy="3" rx="1.8" ry="2.5"></ellipse>
        <ellipse cx="2" cy="7" rx="1.8" ry="2.5"></ellipse>
        <ellipse cx="-2" cy="11" rx="1.8" ry="2.5"></ellipse>
      </g>
    </g>
    
    <g transform="translate(76 60)">
      <ellipse cx="0" cy="0" rx="6" ry="14" fill="url(#lvB)"></ellipse>
      <g fill="#B57BD8" opacity=".75">
        <ellipse cx="-2" cy="-9" rx="1.5" ry="2.2"></ellipse>
        <ellipse cx="2" cy="-5" rx="1.5" ry="2.2"></ellipse>
        <ellipse cx="-2" cy="-1" rx="1.5" ry="2.2"></ellipse>
        <ellipse cx="2" cy="3" rx="1.5" ry="2.2"></ellipse>
        <ellipse cx="-2" cy="7" rx="1.5" ry="2.2"></ellipse>
      </g>
    </g>
  </g>
</svg>