<svg xmlns="http://www.w3.org/2000/svg" viewBox="0 0 100 200" fill="none">
  
  <defs>
    <linearGradient id="bA" x1="0" x2="1" y1="0" y2="0">
      <stop offset="0" stop-color="#7A631F"></stop>
      <stop offset="0.5" stop-color="#EAC762"></stop>
      <stop offset="1" stop-color="#7A631F"></stop>
    </linearGradient>
    <linearGradient id="bAh" x1="0" x2="1" y1="0" y2="0">
      <stop offset="0" stop-color="#FFF7E2" stop-opacity="0.8"></stop>
      <stop offset="0.5" stop-color="#FFF7E2" stop-opacity="0.1"></stop>
      <stop offset="1" stop-color="#FFF7E2" stop-opacity="0"></stop>
    </linearGradient>
  </defs>
  
  <path d="M44 6 q 6 -4 12 0 v 14 h -12 z" fill="#531B79" stroke="#2A2620" stroke-width="1"></path>
  
  <rect x="40" y="20" width="20" height="6" fill="#2A2620"></rect>
  
  <rect x="36" y="26" width="28" height="20" rx="2" fill="#2A2620"></rect>
  <rect x="36" y="26" width="28" height="3" fill="#4F4838"></rect>
  
  <path d="M30 50 L 70 50 L 78 70 L 78 180 q 0 12 -12 12 H 34 q -12 0 -12 -12 V 70 Z" fill="url(#bA)" stroke="#2A2620" stroke-width="1.5"></path>
  
  <path d="M28 78 L 28 174" stroke="url(#bAh)" stroke-width="6" stroke-linecap="round" opacity=".85"></path>
  
  <rect x="30" y="100" width="40" height="60" fill="#FAF6EF" stroke="#2A2620" stroke-width="0.8"></rect>
  <line x1="34" y1="112" x2="66" y2="112" stroke="#832FB1" stroke-width="2"></line>
  <line x1="34" y1="120" x2="60" y2="120" stroke="#7A631F" stroke-width="0.6"></line>
  <line x1="34" y1="126" x2="64" y2="126" stroke="#7A631F" stroke-width="0.6"></line>
  <line x1="34" y1="132" x2="58" y2="132" stroke="#7A631F" stroke-width="0.6"></line>
  <line x1="34" y1="148" x2="62" y2="148" stroke="#832FB1" stroke-width="1"></line>
  <text x="50" y="156" font-family="Cormorant Garamond, serif" font-size="6" fill="#832FB1" text-anchor="middle" font-style="italic">15 ml</text>
</svg>