<svg xmlns="http://www.w3.org/2000/svg" viewBox="0 0 100 240" fill="none">
  
  <defs>
    <linearGradient id="amberBody2" x1="0" x2="1" y1="0" y2="0">
      <stop offset="0" stop-color="#3a1d05"></stop>
      <stop offset="0.18" stop-color="#6e3508"></stop>
      <stop offset="0.45" stop-color="#a85a13"></stop>
      <stop offset="0.62" stop-color="#c87324"></stop>
      <stop offset="0.85" stop-color="#7a3d0a"></stop>
      <stop offset="1" stop-color="#2c1604"></stop>
    </linearGradient>
    <linearGradient id="amberNeck2" x1="0" x2="1" y1="0" y2="0">
      <stop offset="0" stop-color="#2c1604"></stop>
      <stop offset="0.5" stop-color="#a85a13"></stop>
      <stop offset="1" stop-color="#2c1604"></stop>
    </linearGradient>
    <radialGradient id="amberHL2" cx="0.32" cy="0.4" r="0.6">
      <stop offset="0" stop-color="#FFE4B0" stop-opacity="0.85"></stop>
      <stop offset="0.4" stop-color="#FFE4B0" stop-opacity="0.18"></stop>
      <stop offset="1" stop-color="#FFE4B0" stop-opacity="0"></stop>
    </radialGradient>
    <linearGradient id="lvBud" x1="0" x2="0" y1="0" y2="1">
      <stop offset="0" stop-color="#D4ACEA"></stop>
      <stop offset="0.5" stop-color="#9C57C7"></stop>
      <stop offset="1" stop-color="#531B79"></stop>
    </linearGradient>
    <linearGradient id="floor2" x1="0" x2="0" y1="0" y2="1">
      <stop offset="0" stop-color="#7a3d0a" stop-opacity="0.35"></stop>
      <stop offset="1" stop-color="#7a3d0a" stop-opacity="0"></stop>
    </linearGradient>
  </defs>

  
  <path d="M50 80 C 49 60, 51 40, 50 18" stroke="#647654" stroke-width="1.4" stroke-linecap="round" fill="none"></path>
  
  <path d="M50 64 C 44 60, 38 60, 34 64 C 40 68, 46 68, 50 66" fill="#9DAB85" stroke="#4F5E42" stroke-width="0.8"></path>
  <path d="M50 50 C 56 46, 62 46, 66 50 C 60 54, 54 54, 50 52" fill="#9DAB85" stroke="#4F5E42" stroke-width="0.8"></path>

  
  <g stroke="#3B1457" stroke-width="0.6">
    <ellipse cx="46" cy="42" rx="3" ry="4.5" fill="url(#lvBud)"></ellipse>
    <ellipse cx="54" cy="40" rx="3" ry="4.5" fill="url(#lvBud)"></ellipse>
    <ellipse cx="46" cy="32" rx="3.4" ry="5" fill="url(#lvBud)"></ellipse>
    <ellipse cx="54" cy="30" rx="3.4" ry="5" fill="url(#lvBud)"></ellipse>
    <ellipse cx="46" cy="22" rx="3.6" ry="5.2" fill="url(#lvBud)"></ellipse>
    <ellipse cx="54" cy="20" rx="3.6" ry="5.2" fill="url(#lvBud)"></ellipse>
    <ellipse cx="50" cy="11" rx="3.4" ry="5" fill="url(#lvBud)"></ellipse>
    <ellipse cx="50" cy="3" rx="2.6" ry="4" fill="url(#lvBud)"></ellipse>
  </g>
  
  <g stroke="#EAD5F4" stroke-width="0.5" fill="none" stroke-linecap="round" opacity="0.9">
    <path d="M44 40 q 0 2 1 3"></path>
    <path d="M52 28 q 0 2 1 3"></path>
    <path d="M44 20 q 0 2 1 3"></path>
  </g>

  
  <g>
    <rect x="40" y="78" width="20" height="22" fill="url(#amberNeck2)"></rect>
    <g stroke="#1a0c02" stroke-width="0.6" fill="none" opacity="0.7">
      <path d="M40 82 q 10 -3 20 0"></path>
      <path d="M40 87 q 10 -3 20 0"></path>
      <path d="M40 92 q 10 -3 20 0"></path>
      <path d="M40 97 q 10 -3 20 0"></path>
    </g>
    <rect x="38" y="77" width="24" height="3" fill="#2c1604"></rect>
    <rect x="38" y="77" width="24" height="1" fill="#c87324" opacity="0.8"></rect>
  </g>

  
  <path d="M40 100 L 60 100 L 74 118 L 74 224 q 0 8 -8 8 H 34 q -8 0 -8 -8 V 118 Z" fill="url(#amberBody2)" stroke="#1a0c02" stroke-width="0.8"></path>

  
  <ellipse cx="50" cy="124" rx="22" ry="3" fill="#1a0c02" opacity="0.35"></ellipse>

  
  <path d="M32 134 q -4 50 0 90" stroke="url(#amberHL2)" stroke-width="6" stroke-linecap="round" fill="none"></path>
  <ellipse cx="42" cy="178" rx="6" ry="46" fill="url(#amberHL2)" opacity="0.7"></ellipse>
  <path d="M72 128 L 72 224" stroke="#1a0c02" stroke-width="3" stroke-linecap="round" opacity="0.55"></path>
  <ellipse cx="50" cy="228" rx="20" ry="2.5" fill="#FFE4B0" opacity="0.25"></ellipse>

  
  <ellipse cx="50" cy="234" rx="26" ry="2.5" fill="url(#floor2)"></ellipse>
</svg>