<?xml version="1.0" encoding="UTF-8"?>

<svg xmlns="http://www.w3.org/2000/svg" viewBox="0 0 80 200" width="80" height="200">
  <g fill="none" stroke="#647654" stroke-width="1.4" stroke-linecap="round" stroke-linejoin="round">
    <path d="M40 200 L 40 70"></path>
    <path d="M28 100 C 32 110, 36 110, 40 100"></path>
    <path d="M52 90 C 48 100, 44 100, 40 90"></path>
    <path d="M30 130 C 34 140, 38 140, 40 130"></path>
    <path d="M50 120 C 46 130, 42 130, 40 120"></path>
  </g>
  <g fill="#9DAB85">
    <ellipse cx="40" cy="20" rx="6" ry="9"></ellipse>
    <ellipse cx="32" cy="32" rx="5" ry="7"></ellipse>
    <ellipse cx="48" cy="32" rx="5" ry="7"></ellipse>
    <ellipse cx="36" cy="46" rx="5" ry="7"></ellipse>
    <ellipse cx="44" cy="46" rx="5" ry="7"></ellipse>
    <ellipse cx="40" cy="58" rx="5" ry="7"></ellipse>
  </g>
</svg>